<svg width="22" height="22" viewBox="0 0 22 22" fill="none" xmlns="http://www.w3.org/2000/svg">
<g filter="url(#filter0_i_5465_19635)">
<path d="M2 11C2 6.02944 6.02944 2 11 2C15.9706 2 20 6.02944 20 11C20 15.9706 15.9706 20 11 20C6.02944 20 2 15.9706 2 11Z" fill="url(#paint0_linear_5465_19635)"/>
</g>
<path d="M11.3204 6C10.2681 6 9.44339 6.29862 8.83194 6.89584C8.20627 7.49307 7.90765 8.31782 7.90765 9.37008H9.52871C9.52871 8.77285 9.64246 8.3036 9.8842 7.97655C10.1544 7.57839 10.5952 7.39354 11.2209 7.39354C11.7043 7.39354 12.0883 7.52151 12.3584 7.79169C12.6144 8.06186 12.7566 8.43158 12.7566 8.90083C12.7566 9.25632 12.6286 9.5976 12.3727 9.91043L12.202 10.1095C11.2777 10.9343 10.7232 11.5315 10.5383 11.9154C10.3392 12.2994 10.2539 12.7686 10.2539 13.309C10.2539 13.4189 10.343 13.508 10.453 13.508H11.6901C11.8001 13.508 11.8892 13.4189 11.8892 13.309C11.8892 12.9677 11.9603 12.6691 12.1025 12.3847C12.2305 12.1287 12.4153 11.887 12.6713 11.6737C13.3538 11.0765 13.7662 10.6925 13.8942 10.5503C14.2354 10.0953 14.4203 9.51228 14.4203 8.80129C14.4203 7.93389 14.1359 7.25134 13.5671 6.75365C12.9983 6.24174 12.2447 6 11.3204 6Z" fill="white"/>
<path opacity="0.5" d="M11.0643 14.2048C10.7514 14.2048 10.4955 14.3044 10.2822 14.5034C10.0689 14.7025 9.96936 14.9585 9.96936 15.2713C9.96936 15.5841 10.0689 15.8401 10.2822 16.0392C10.4955 16.2382 10.7514 16.352 11.0643 16.352C11.3771 16.352 11.6331 16.2525 11.8464 16.0534C12.0597 15.8543 12.1734 15.5841 12.1734 15.2713C12.1734 14.9585 12.0597 14.7025 11.8606 14.5034C11.6473 14.3044 11.3771 14.2048 11.0643 14.2048Z" fill="white"/>
<defs>
<filter id="filter0_i_5465_19635" x="2" y="2" width="18" height="18" filterUnits="userSpaceOnUse" color-interpolation-filters="sRGB">
<feFlood flood-opacity="0" result="BackgroundImageFix"/>
<feBlend mode="normal" in="SourceGraphic" in2="BackgroundImageFix" result="shape"/>
<feColorMatrix in="SourceAlpha" type="matrix" values="0 0 0 0 0 0 0 0 0 0 0 0 0 0 0 0 0 0 127 0" result="hardAlpha"/>
<feOffset/>
<feGaussianBlur stdDeviation="1.5"/>
<feComposite in2="hardAlpha" operator="arithmetic" k2="-1" k3="1"/>
<feColorMatrix type="matrix" values="0 0 0 0 1 0 0 0 0 1 0 0 0 0 1 0 0 0 0.4 0"/>
<feBlend mode="normal" in2="shape" result="effect1_innerShadow_5465_19635"/>
</filter>
<linearGradient id="paint0_linear_5465_19635" x1="11" y1="2" x2="11" y2="20" gradientUnits="userSpaceOnUse">
<stop stop-color="#FF6E40"/>
<stop offset="1" stop-color="#FF9C40"/>
</linearGradient>
</defs>
</svg>
